<svg width="145" height="28" viewBox="0 0 145 28" fill="none" xmlns="http://www.w3.org/2000/svg">
<path d="M11.9584 22.7399C12.5291 22.7399 13.0709 22.6868 13.5807 22.5681C14.0975 22.4495 14.5565 22.2632 14.9436 21.9864C15.3307 21.721 15.6509 21.3567 15.8844 20.8926C16.1179 20.4336 16.2296 19.8373 16.2296 19.1161C16.2296 17.7038 15.8485 16.7005 15.0912 16.0917C14.332 15.4912 13.3193 15.1925 12.0742 15.1925H5.78467V22.7399H11.9584ZM11.6392 11.0733C12.6638 11.0733 13.5119 10.8194 14.1843 10.3042C14.8498 9.79844 15.173 8.96065 15.173 7.81169C15.173 7.17476 15.0653 6.64712 14.8498 6.23811C14.6273 5.82911 14.332 5.50856 13.9588 5.28481C13.5887 5.05168 13.1707 4.89037 12.6848 4.80399C12.2089 4.70616 11.709 4.6687 11.1972 4.6687H5.78467V11.0733H11.6392ZM12.3875 0C13.6436 0 14.778 0.113439 15.8146 0.347602C16.8452 0.575521 17.7252 0.956427 18.4684 1.47887C19.2008 2.00028 19.7734 2.69444 20.1835 3.56865C20.5836 4.43037 20.7851 5.50856 20.7851 6.78449C20.7851 8.16449 20.4848 9.31658 19.8842 10.2376C19.2796 11.1576 18.3906 11.9121 17.2034 12.4981C18.8206 12.9831 20.0179 13.8375 20.812 15.051C21.6102 16.2728 22.0003 17.7361 22.0003 19.4501C22.0003 20.8405 21.7449 22.0363 21.2361 23.0427C20.7213 24.0616 20.0209 24.8879 19.1579 25.5248C18.2879 26.168 17.2882 26.6395 16.1687 26.9465C15.0613 27.2535 13.9119 27.4075 12.7347 27.4075H0V0H12.3875Z" fill="#A7AAB4"/>
<path d="M36.2515 12.2223C35.6299 11.5052 34.5783 11.117 33.2953 11.117C32.4602 11.117 31.7688 11.2638 31.2161 11.5625C30.6753 11.857 30.2314 12.2244 29.8931 12.6563C29.5559 13.0955 29.3254 13.5586 29.1918 14.054C29.0581 14.5369 28.9782 14.975 28.9533 15.3622H37.4557C37.331 13.9718 36.8751 12.9446 36.2515 12.2223ZM30.2473 22.6483C31.0295 23.4455 32.1609 23.8472 33.6265 23.8472C34.6801 23.8472 35.591 23.5693 36.3552 23.0146C37.1125 22.462 37.5734 21.8698 37.752 21.2558H42.3534C41.6141 23.6443 40.4917 25.35 38.9602 26.3762C37.4477 27.4075 35.602 27.9216 33.4519 27.9216C31.9534 27.9216 30.6045 27.6677 29.3943 27.1702C28.1841 26.6655 27.1724 25.9578 26.3214 25.0357C25.4923 24.1095 24.8488 23.0146 24.3898 21.7293C23.9359 20.4503 23.7064 19.0338 23.7064 17.4988C23.7064 16.0147 23.9448 14.6285 24.4088 13.3473C24.8837 12.062 25.5392 10.9526 26.4012 10.0222C27.2662 9.08659 28.2908 8.34871 29.4841 7.80962C30.6783 7.27156 31.9943 7.00201 33.4519 7.00201C35.0612 7.00201 36.471 7.32464 37.6792 7.98342C38.8834 8.63179 39.8701 9.5112 40.6464 10.6123C41.4216 11.7123 41.9733 12.9695 42.3185 14.3787C42.6597 15.7868 42.7804 17.2573 42.6817 18.7976H28.9533C28.9533 20.366 29.4621 21.8511 30.2473 22.6483Z" fill="#A7AAB4"/>
<path d="M50.1036 0V10.3344H50.2233C50.8867 9.18441 51.7258 8.3487 52.7574 7.83042C53.7871 7.30798 54.7918 7.04988 55.7705 7.04988C57.1663 7.04988 58.3096 7.24137 59.2026 7.63581C60.0965 8.03753 60.8039 8.58078 61.3217 9.28744C61.8295 9.99097 62.1887 10.8496 62.3992 11.8612C62.6057 12.8707 62.7125 13.9842 62.7125 15.2123V27.4075H57.4616V16.202C57.4616 14.5681 57.2172 13.34 56.7303 12.5366C56.2424 11.7321 55.3764 11.3283 54.1273 11.3283C52.7145 11.3283 51.6929 11.7748 51.0603 12.6563C50.4158 13.5378 50.1036 14.9885 50.1036 17.0075V27.4075H44.8546V0H50.1036Z" fill="#A7AAB4"/>
<path d="M76.7282 18.1888C76.403 18.3012 76.0428 18.3959 75.6716 18.4781C75.2885 18.5541 74.8884 18.6155 74.4734 18.6696C74.0623 18.7216 73.6393 18.781 73.2293 18.858C72.8382 18.9381 72.4471 19.038 72.0749 19.1681C71.6958 19.2972 71.3636 19.4689 71.0902 19.6853C70.8068 19.9049 70.5814 20.1797 70.4088 20.5096C70.2412 20.8405 70.1514 21.2704 70.1514 21.7782C70.1514 22.2632 70.2412 22.6722 70.4088 23.0084C70.5814 23.3414 70.8069 23.6016 71.1032 23.7941C71.3985 23.9867 71.7447 24.122 72.1298 24.1969C72.5209 24.2781 72.925 24.3082 73.339 24.3082C74.3667 24.3082 75.1588 24.1303 75.7235 23.7733C76.2852 23.4143 76.7083 22.9855 76.9726 22.4859C77.242 21.9864 77.4047 21.4827 77.4575 20.9748C77.5264 20.4638 77.5573 20.0517 77.5573 19.7426V17.7038C77.3308 17.913 77.0644 18.0743 76.7282 18.1888ZM66.4429 10.4666C66.9747 9.62256 67.6601 8.93881 68.4942 8.42781C69.3283 7.91161 70.2601 7.5484 71.3077 7.33088C72.3513 7.10713 73.3949 7.00201 74.4544 7.00201C75.4073 7.00201 76.371 7.0707 77.3637 7.21224C78.3405 7.35274 79.2334 7.62853 80.0436 8.03962C80.8527 8.45279 81.5122 9.0179 82.023 9.75578C82.5408 10.4749 82.8032 11.449 82.8032 12.6563V22.999C82.8032 23.8982 82.8551 24.7526 82.9469 25.5706C83.0506 26.3959 83.319 27.0152 83.5724 27.4211L78.2347 27.4075C78.0781 27.1702 77.9484 26.7987 77.8875 26.475C77.8257 26.1587 77.7828 25.8329 77.7588 25.4988C76.9277 26.3959 75.953 27.0266 74.8176 27.3867C73.6912 27.7416 72.5429 27.9216 71.3636 27.9216C70.4597 27.9216 69.6176 27.802 68.8294 27.5709C68.0532 27.3399 67.3638 26.9819 66.7761 26.4979C66.1855 26.0046 65.7315 25.3927 65.4003 24.6517C65.0711 23.9065 64.9015 23.0198 64.9015 21.9958C64.9015 20.8655 65.096 19.9351 65.4801 19.2066C65.8543 18.4781 66.3401 17.8922 66.9477 17.4582C67.5454 17.0211 68.2318 16.6922 69.009 16.4778C69.7792 16.2614 70.5614 16.0823 71.3366 15.9564C72.1238 15.8305 72.8901 15.7285 73.6553 15.6494C74.4225 15.5714 75.087 15.46 75.6806 15.3039C76.2663 15.1519 76.7352 14.9209 77.0794 14.6285C77.4176 14.335 77.5802 13.9083 77.5573 13.34C77.5573 12.7531 77.4575 12.2847 77.2769 11.9351C77.0954 11.5906 76.8499 11.3252 76.5496 11.1316C76.2413 10.938 75.8941 10.8111 75.494 10.7434C75.087 10.682 74.656 10.6477 74.196 10.6477C73.1734 10.6477 72.3643 10.885 71.7906 11.3408C71.2009 11.8102 70.8617 12.5824 70.757 13.6606H65.515C65.5909 12.3732 65.8942 11.3106 66.4429 10.4666Z" fill="#A7AAB4"/>
<path d="M90.6402 7.56815V10.3344H90.7569C91.4184 9.18439 92.2714 8.34869 93.331 7.83041C94.3815 7.30797 95.47 7.04987 96.5735 7.04987C97.9753 7.04987 99.1256 7.24136 100.015 7.63579C100.919 8.03751 101.623 8.58077 102.133 9.28743C102.655 9.99096 103.015 10.8496 103.224 11.8611C103.436 12.8706 103.54 13.9842 103.54 15.2123V27.4075H98.2875V16.202C98.2875 14.5681 98.0411 13.34 97.5512 12.5366C97.0544 11.7321 96.1974 11.2159 94.9392 11.2159C93.5175 11.2159 92.4819 11.7748 91.8454 12.6563C91.2049 13.5378 90.8876 14.9885 90.8876 17.0075V27.4075H85.6916V7.56815H90.6402Z" fill="#A7AAB4"/>
<path d="M115.168 11.117C114.328 11.117 113.634 11.3106 113.076 11.7123C112.507 12.113 112.042 12.6209 111.687 13.2505C111.33 13.876 111.084 14.5681 110.931 15.3257C110.789 16.0823 110.709 16.8317 110.709 17.5768C110.709 18.297 110.789 19.0266 110.931 19.7717C111.084 20.5127 111.319 21.1819 111.65 21.7918C111.986 22.3891 112.433 22.8804 112.998 23.2686C113.559 23.6547 114.243 23.8472 115.054 23.8472C116.312 23.8472 117.276 23.4809 117.951 22.7555C118.624 22.0259 119.04 21.0456 119.215 19.8175H124.262C123.915 22.4495 122.934 24.4602 121.318 25.8464C119.697 27.2233 117.621 27.9216 115.093 27.9216C113.664 27.9216 112.366 27.6677 111.169 27.1702C109.974 26.6655 108.959 25.9703 108.123 25.0732C107.287 24.174 106.638 23.1052 106.163 21.8625C105.699 20.6178 105.466 19.2514 105.466 17.7683C105.466 16.2322 105.683 14.8012 106.113 13.4785C106.541 12.1609 107.173 11.0192 108.016 10.0617C108.851 9.09804 109.873 8.34871 111.081 7.80962C112.284 7.27156 113.659 7.00201 115.203 7.00201C116.332 7.00201 117.416 7.16124 118.464 7.45889C119.504 7.76278 120.439 8.23215 121.259 8.86179C122.081 9.48727 122.754 10.2668 123.27 11.1961C123.78 12.1255 124.071 13.2391 124.152 14.5119H119.028C118.689 12.2473 117.402 11.117 115.168 11.117Z" fill="#A7AAB4"/>
<path d="M27.8848 1.83899H38.5352V4.54384H27.8848V1.83899Z" fill="#A7AAB4"/>
<path d="M138.188 12.2223C137.558 11.5052 136.498 11.117 135.231 11.117C134.397 11.117 133.704 11.2638 133.141 11.5625C132.599 11.857 132.105 12.2244 131.772 12.6563C131.44 13.0955 131.202 13.5586 131.063 14.054C130.939 14.5369 130.852 14.975 130.83 15.3622H139.396C139.256 13.9718 138.811 12.9446 138.188 12.2223ZM132.119 22.6483C132.904 23.4455 134.089 23.8472 135.566 23.8472C136.617 23.8472 137.526 23.5693 138.285 23.0146C139.045 22.462 139.516 21.8698 139.683 21.2558H144.285C143.549 23.6443 142.42 25.35 140.898 26.3762C139.38 27.4075 137.542 27.9216 135.384 27.9216C133.881 27.9216 132.528 27.6677 131.326 27.1702C130.118 26.6655 129.105 25.9578 128.258 25.0357C127.42 24.1095 126.778 23.0146 126.321 21.7293C125.867 20.4503 125.641 19.0338 125.641 17.4988C125.641 16.0147 125.875 14.6285 126.34 13.3473C126.811 12.062 127.48 10.9526 128.337 10.0222C129.206 9.08659 130.222 8.34871 131.412 7.80962C132.607 7.27156 133.934 7.00201 135.384 7.00201C136.991 7.00201 138.407 7.32464 139.603 7.98342C140.811 8.63179 141.802 9.5112 142.572 10.6123C143.348 11.7123 143.905 12.9695 144.248 14.3787C144.585 15.7868 144.715 17.2573 144.618 18.7976H130.83C130.83 20.366 131.331 21.8511 132.119 22.6483Z" fill="#A7AAB4"/>
</svg>
